<svg id="Layer_3" data-name="Layer 3" xmlns="http://www.w3.org/2000/svg" viewBox="0 0 128 128"><defs><style>.cls-1{fill:#b91372;}.cls-2{font-size:12px;fill:#9e005d;font-family:MyriadPro-Regular, Myriad Pro;}.cls-3{letter-spacing:0em;}.cls-4{letter-spacing:-0.01em;}.cls-5{letter-spacing:0em;}</style></defs><title>DesktopOnly</title><path class="cls-1" d="M64,4A60,60,0,1,1,4,64,60.07,60.07,0,0,1,64,4m0-4a64,64,0,1,0,64,64A64,64,0,0,0,64,0Z" transform="translate(0)"/><path class="cls-1" d="M102.94,41.19a2,2,0,0,1,2,2V72.42a2,2,0,0,1-2,2H25.06a2,2,0,0,1-2-2V43.19a2,2,0,0,1,2-2h77.88m0-1H25.06a3,3,0,0,0-3,3V72.42a3,3,0,0,0,3,3h77.88a3,3,0,0,0,3-3V43.19a3,3,0,0,0-3-3Z" transform="translate(0)"/><path class="cls-1" d="M75.72,78.81l10.35,8H41.93l10.35-8H75.72m.34-1H51.94L39,87.81H89l-12.94-10Z" transform="translate(0)"/><text class="cls-2" transform="translate(30.99 61.49)"><tspan class="cls-3">D</tspan><tspan x="8.04" y="0">esk</tspan><tspan class="cls-4" x="24.43" y="0">t</tspan><tspan class="cls-5" x="28.33" y="0">op Only</tspan></text></svg>