<svg xmlns="http://www.w3.org/2000/svg" viewBox="0 0 107.74 127.61"><defs><style>.cls-1,.cls-3,.cls-4{fill:#191363;}.cls-2,.cls-5,.cls-6{fill:none;}.cls-2,.cls-3,.cls-4,.cls-6{stroke:#191363;}.cls-2,.cls-3,.cls-4,.cls-5,.cls-6{stroke-miterlimit:10;}.cls-2,.cls-3{stroke-width:4px;}.cls-4{stroke-width:6px;}.cls-5{stroke:#b91372;}.cls-5,.cls-6{stroke-width:5px;}</style></defs><title>IELTSTimerIco12-10</title><g id="Layer_2" data-name="Layer 2"><path class="cls-1" d="M63.83,24.54A49.87,49.87,0,1,1,14,74.41,49.92,49.92,0,0,1,63.83,24.54m0-4A53.87,53.87,0,1,0,117.7,74.41,53.87,53.87,0,0,0,63.83,20.54Z" transform="translate(-9.96 -0.67)"/><rect class="cls-1" x="38.74" y="2" width="30.26" height="8"/><path class="cls-1" d="M77,4.67v4H50.7v-4H77m2.86-4h-32A1.14,1.14,0,0,0,46.7,1.8v9.73a1.14,1.14,0,0,0,1.14,1.14h32A1.14,1.14,0,0,0,81,11.53V1.8A1.14,1.14,0,0,0,79.82.67Z" transform="translate(-9.96 -0.67)"/><rect class="cls-1" x="50.16" y="12.51" width="7.42" height="8"/><path class="cls-1" d="M65.54,15.18v4H62.12v-4h3.42m4-4H58.12v12H69.54v-12Z" transform="translate(-9.96 -0.67)"/><line class="cls-2" x1="94" y1="72.08" x2="103" y2="72.08"/><line class="cls-2" x1="53.5" y1="24.58" x2="53.5" y2="33.58"/><line class="cls-2" x1="74.92" y1="39.77" x2="80.09" y2="32.4"/><line class="cls-2" x1="53.5" y1="113.58" x2="53.5" y2="122.58"/><line class="cls-2" x1="13.94" y1="72.04" x2="4.94" y2="72.19"/><line class="cls-2" x1="88.61" y1="53.33" x2="96.4" y2="48.83"/><line class="cls-2" x1="28.25" y1="114.99" x2="33.41" y2="107.62"/><line class="cls-2" x1="73.25" y1="108.62" x2="78.41" y2="115.99"/><line class="cls-2" x1="28.25" y1="31.62" x2="33.41" y2="38.99"/><line class="cls-2" x1="88.94" y1="94.05" x2="96.73" y2="98.55"/><line class="cls-2" x1="11.94" y1="49.05" x2="19.73" y2="53.55"/><line class="cls-2" x1="10.94" y1="98.55" x2="18.73" y2="94.05"/><rect class="cls-3" x="88.91" y="22.06" width="10" height="6" rx="1.5" transform="translate(9.56 86.95) rotate(-55)"/><circle class="cls-4" cx="54" cy="71.58" r="2.5"/><line class="cls-5" x1="54.85" y1="71.83" x2="85.16" y2="54.33"/><line class="cls-6" x1="53.83" y1="71.93" x2="53.83" y2="51.93"/></g></svg>