<svg xmlns="http://www.w3.org/2000/svg" viewBox="0 0 235.98 127.24"><defs><style>.cls-1,.cls-2,.cls-3{fill:#fbb03b;}.cls-1{opacity:0.35;}.cls-2{opacity:0.36;}.cls-3,.cls-4{opacity:0.75;}.cls-5{fill:#893b3e;}.cls-18,.cls-24,.cls-6{font-size:12px;}.cls-23,.cls-24,.cls-6{font-family:TimesNewRomanPS-BoldMT, Times New Roman;font-weight:700;}.cls-24,.cls-7{letter-spacing:-0.07em;}.cls-8{font-family:TimesNewRomanPSMT, Times New Roman;font-weight:400;}.cls-14,.cls-9{fill:#191363;}.cls-10,.cls-13,.cls-16,.cls-23{fill:#781f22;}.cls-10,.cls-11{stroke:#781f22;stroke-width:0.75px;}.cls-10,.cls-11,.cls-14,.cls-19,.cls-20{stroke-miterlimit:10;}.cls-11,.cls-12,.cls-15,.cls-19{fill:#fdfffc;}.cls-12{font-size:3.4px;}.cls-12,.cls-13,.cls-18,.cls-21{font-family:MyriadPro-Regular, Myriad Pro;}.cls-13{font-size:3.97px;}.cls-14{stroke:#fdfffc;stroke-width:0.25px;}.cls-17,.cls-20{fill:#759aab;}.cls-19,.cls-20{stroke:#191363;}.cls-21{font-size:2.63px;}.cls-22{letter-spacing:0.02em;}.cls-23{font-size:24px;}.cls-25{letter-spacing:-0.02em;}</style></defs><title>InAtOn</title><g id="Layer_17" data-name="Layer 17"><rect class="cls-1" x="0.85" y="0.28" width="235" height="100"/><rect class="cls-2" x="0.43" y="0.28" width="161.29" height="100"/><rect class="cls-3" width="79.51" height="100"/><g class="cls-4"><polygon class="cls-5" points="220.07 108.65 228.03 104.06 235.98 99.47 228.03 94.87 220.07 90.28 220.07 94.96 13.18 94.96 13.18 103.97 220.07 103.97 220.07 108.65"/><rect class="cls-5" x="7.57" y="95.14" width="4.13" height="8.65"/><rect class="cls-5" x="3.94" y="95.14" width="2.36" height="8.65"/><rect class="cls-5" x="0.71" y="95.16" width="1.59" height="8.64"/></g><text class="cls-6" transform="translate(11.2 123.31)"><tspan class="cls-7">A</tspan><tspan x="7.78" y="0">T</tspan><tspan class="cls-8" x="15.78" y="0" xml:space="preserve"> specific</tspan></text><text class="cls-6" transform="translate(153.39 123.31)">IN<tspan class="cls-8" x="13.34" y="0" xml:space="preserve"> non-specific</tspan></text><path class="cls-9" d="M51.35,44.51c17.09,0,31,12.59,31,28.06s-13.91,28.06-31,28.06-31-12.59-31-28.06,13.9-28.06,31-28.06m0-1c-17.68,0-32,13-32,29.06s14.32,29.06,32,29.06,32-13,32-29.06S69,43.51,51.35,43.51Z" transform="translate(-10.5 -17.76)"/><ellipse class="cls-10" cx="40.5" cy="41.69" rx="2.5" ry="2.27"/><ellipse class="cls-10" cx="48.11" cy="43.78" rx="2.5" ry="2.27"/><ellipse class="cls-10" cx="53.33" cy="48.36" rx="2.5" ry="2.27"/><ellipse class="cls-10" cx="54.83" cy="54.8" rx="2.5" ry="2.27"/><ellipse class="cls-10" cx="48.11" cy="65.65" rx="2.5" ry="2.27"/><ellipse class="cls-10" cx="52.98" cy="61.07" rx="2.5" ry="2.27"/><ellipse class="cls-10" cx="40.41" cy="67.49" rx="2.5" ry="2.27"/><ellipse class="cls-10" cx="33.42" cy="66.12" rx="2.5" ry="2.27"/><ellipse class="cls-10" cx="28.28" cy="61.22" rx="2.5" ry="2.27"/><ellipse class="cls-10" cx="33.06" cy="43.54" rx="2.5" ry="2.27"/><ellipse class="cls-10" cx="27.84" cy="48.12" rx="2.5" ry="2.27"/><ellipse class="cls-10" cx="26.34" cy="54.56" rx="2.5" ry="2.27"/><ellipse class="cls-11" cx="54.23" cy="34.06" rx="3.64" ry="3.3"/><ellipse class="cls-11" cx="40.16" cy="30.61" rx="3.64" ry="3.3"/><ellipse class="cls-11" cx="63.29" cy="43.68" rx="3.64" ry="3.3"/><ellipse class="cls-11" cx="66.86" cy="54.8" rx="3.64" ry="3.3"/><ellipse class="cls-11" cx="63.7" cy="66.33" rx="3.64" ry="3.3"/><ellipse class="cls-11" cx="53.34" cy="75.44" rx="3.64" ry="3.3"/><ellipse class="cls-11" cx="40.75" cy="78.75" rx="3.64" ry="3.3"/><ellipse class="cls-11" cx="24.91" cy="74.26" rx="3.64" ry="3.3"/><ellipse class="cls-11" cx="16.1" cy="63.9" rx="3.64" ry="3.3"/><ellipse class="cls-11" cx="14.49" cy="54.8" rx="3.64" ry="3.3"/><ellipse class="cls-11" cx="17.74" cy="42.95" rx="3.64" ry="3.3"/><ellipse class="cls-11" cx="27.07" cy="34.41" rx="3.64" ry="3.3"/><text class="cls-12" transform="translate(39.61 42.65) scale(1.1 1)">0</text><text class="cls-12" transform="translate(31 44.85) scale(1.1 1)">11</text><text class="cls-12" transform="translate(25.83 49.35) scale(1.1 1)">10</text><text class="cls-12" transform="translate(25.34 55.78) scale(1.1 1)">9</text><text class="cls-12" transform="translate(27.3 62.21) scale(1.1 1)">8</text><text class="cls-12" transform="translate(32.29 67.6) scale(1.1 1)">7</text><text class="cls-12" transform="translate(39.43 68.58) scale(1.1 1)">6</text><text class="cls-12" transform="translate(47.29 66.79) scale(1.1 1)">5</text><text class="cls-12" transform="translate(51.83 62.05) scale(1.1 1)">4</text><text class="cls-12" transform="translate(53.98 55.82) scale(1.1 1)">3</text><text class="cls-12" transform="translate(52.54 49.51) scale(1.1 1)">2</text><text class="cls-12" transform="translate(47.11 45.01) scale(1.1 1)">1</text><text class="cls-13" transform="translate(24.98 35.7) scale(1.1 1)">55</text><text class="cls-13" transform="translate(15.5 44.2) scale(1.1 1)">50</text><text class="cls-13" transform="translate(12.33 56.11) scale(1.1 1)">45</text><text class="cls-13" transform="translate(13.86 65.24) scale(1.1 1)">40</text><text class="cls-13" transform="translate(22.81 75.55) scale(1.1 1)">35</text><text class="cls-13" transform="translate(38.94 80.09) scale(1.1 1)">30</text><text class="cls-13" transform="translate(51.48 76.76) scale(1.1 1)">25</text><text class="cls-13" transform="translate(61.71 67.7) scale(1.1 1)">20</text><text class="cls-13" transform="translate(64.8 56.09) scale(1.1 1)">15</text><text class="cls-13" transform="translate(60.83 44.96) scale(1.1 1)">10</text><text class="cls-13" transform="translate(52.99 35.34) scale(1.1 1)">5</text><text class="cls-13" transform="translate(39.1 31.72) scale(1.1 1)">0</text><polygon class="cls-14" points="50.69 49.44 40.48 54.35 41.18 55.57 51.38 50.66 50.69 49.44"/><polygon class="cls-14" points="51.34 36.88 40.31 54.42 41.43 54.95 52.46 37.41 51.34 36.88"/><path class="cls-9" d="M51.36,73.63a1.08,1.08,0,1,1,1.19-1.07A1.13,1.13,0,0,1,51.36,73.63Z" transform="translate(-10.5 -17.76)"/><path class="cls-15" d="M51.36,71.61a1,1,0,1,1-1.07,1,1,1,0,0,1,1.07-1m0-.25a1.21,1.21,0,1,0,1.32,1.2,1.27,1.27,0,0,0-1.32-1.2Z" transform="translate(-10.5 -17.76)"/><path class="cls-9" d="M241.21,33.59v72.09h-62V33.59h62m1-1h-64v74.09h64V32.59Z" transform="translate(-10.5 -17.76)"/><rect class="cls-16" x="173.13" y="34.1" width="12" height="3.54"/><rect class="cls-17" x="173.31" y="38.17" width="2" height="1.18"/><rect class="cls-17" x="175.72" y="38.17" width="2" height="1.18"/><rect class="cls-17" x="178.13" y="38.17" width="2" height="1.18"/><rect class="cls-17" x="180.54" y="38.17" width="2" height="1.18"/><rect class="cls-17" x="182.95" y="38.17" width="2" height="1.18"/><rect class="cls-17" x="173.31" y="39.86" width="2" height="1.18"/><rect class="cls-17" x="175.72" y="39.86" width="2" height="1.18"/><rect class="cls-17" x="178.13" y="39.86" width="2" height="1.18"/><rect class="cls-17" x="180.54" y="39.86" width="2" height="1.18"/><rect class="cls-17" x="182.95" y="39.86" width="2" height="1.18"/><rect class="cls-17" x="173.31" y="41.55" width="2" height="1.18"/><rect class="cls-17" x="175.72" y="41.55" width="2" height="1.18"/><rect class="cls-17" x="178.13" y="41.55" width="2" height="1.18"/><rect class="cls-17" x="180.54" y="41.55" width="2" height="1.18"/><rect class="cls-17" x="182.95" y="41.55" width="2" height="1.18"/><rect class="cls-17" x="173.31" y="44.92" width="2" height="1.18"/><rect class="cls-17" x="175.72" y="44.92" width="2" height="1.18"/><rect class="cls-17" x="178.13" y="44.92" width="2" height="1.18"/><rect class="cls-17" x="180.54" y="44.92" width="2" height="1.18"/><rect class="cls-17" x="182.95" y="44.92" width="2" height="1.18"/><rect class="cls-17" x="173.31" y="43.23" width="2" height="1.18"/><rect class="cls-17" x="175.72" y="43.23" width="2" height="1.18"/><rect class="cls-17" x="178.13" y="43.23" width="2" height="1.18"/><rect class="cls-17" x="180.54" y="43.23" width="2" height="1.18"/><rect class="cls-17" x="182.95" y="43.23" width="2" height="1.18"/><rect class="cls-16" x="187.02" y="34.1" width="12" height="3.54"/><rect class="cls-17" x="187.2" y="38.17" width="2" height="1.18"/><rect class="cls-17" x="189.61" y="38.17" width="2" height="1.18"/><rect class="cls-17" x="192.02" y="38.17" width="2" height="1.18"/><rect class="cls-17" x="194.43" y="38.17" width="2" height="1.18"/><rect class="cls-17" x="196.84" y="38.17" width="2" height="1.18"/><rect class="cls-17" x="187.2" y="39.86" width="2" height="1.18"/><rect class="cls-17" x="189.61" y="39.86" width="2" height="1.18"/><rect class="cls-17" x="192.02" y="39.86" width="2" height="1.18"/><rect class="cls-17" x="194.43" y="39.86" width="2" height="1.18"/><rect class="cls-17" x="196.84" y="39.86" width="2" height="1.18"/><rect class="cls-17" x="187.2" y="41.55" width="2" height="1.18"/><rect class="cls-17" x="189.61" y="41.55" width="2" height="1.18"/><rect class="cls-17" x="192.02" y="41.55" width="2" height="1.18"/><rect class="cls-17" x="194.43" y="41.55" width="2" height="1.18"/><rect class="cls-17" x="196.84" y="41.55" width="2" height="1.18"/><rect class="cls-17" x="187.2" y="44.92" width="2" height="1.18"/><rect class="cls-17" x="189.61" y="44.92" width="2" height="1.18"/><rect class="cls-17" x="192.02" y="44.92" width="2" height="1.18"/><rect class="cls-17" x="194.43" y="44.92" width="2" height="1.18"/><rect class="cls-17" x="196.84" y="44.92" width="2" height="1.18"/><rect class="cls-17" x="187.2" y="43.23" width="2" height="1.18"/><rect class="cls-17" x="189.61" y="43.23" width="2" height="1.18"/><rect class="cls-17" x="192.02" y="43.23" width="2" height="1.18"/><rect class="cls-17" x="194.43" y="43.23" width="2" height="1.18"/><rect class="cls-17" x="196.84" y="43.23" width="2" height="1.18"/><rect class="cls-16" x="200.91" y="34.1" width="12" height="3.54"/><rect class="cls-17" x="201.09" y="38.17" width="2" height="1.18"/><rect class="cls-17" x="203.5" y="38.17" width="2" height="1.18"/><rect class="cls-17" x="205.91" y="38.17" width="2" height="1.18"/><rect class="cls-17" x="208.32" y="38.17" width="2" height="1.18"/><rect class="cls-17" x="210.73" y="38.17" width="2" height="1.18"/><rect class="cls-17" x="201.09" y="39.86" width="2" height="1.18"/><rect class="cls-17" x="203.5" y="39.86" width="2" height="1.18"/><rect class="cls-17" x="205.91" y="39.86" width="2" height="1.18"/><rect class="cls-17" x="208.32" y="39.86" width="2" height="1.18"/><rect class="cls-17" x="210.73" y="39.86" width="2" height="1.18"/><rect class="cls-17" x="201.09" y="41.55" width="2" height="1.18"/><rect class="cls-17" x="203.5" y="41.55" width="2" height="1.18"/><rect class="cls-17" x="205.91" y="41.55" width="2" height="1.18"/><rect class="cls-17" x="208.32" y="41.55" width="2" height="1.18"/><rect class="cls-17" x="210.73" y="41.55" width="2" height="1.18"/><rect class="cls-17" x="201.09" y="44.92" width="2" height="1.18"/><rect class="cls-17" x="203.5" y="44.92" width="2" height="1.18"/><rect class="cls-17" x="205.91" y="44.92" width="2" height="1.18"/><rect class="cls-17" x="208.32" y="44.92" width="2" height="1.18"/><rect class="cls-17" x="210.73" y="44.92" width="2" height="1.18"/><rect class="cls-17" x="201.09" y="43.23" width="2" height="1.18"/><rect class="cls-17" x="203.5" y="43.23" width="2" height="1.18"/><rect class="cls-17" x="205.91" y="43.23" width="2" height="1.18"/><rect class="cls-17" x="208.32" y="43.23" width="2" height="1.18"/><rect class="cls-17" x="210.73" y="43.23" width="2" height="1.18"/><rect class="cls-16" x="214.8" y="34.1" width="12" height="3.54"/><rect class="cls-17" x="214.98" y="38.17" width="2" height="1.18"/><rect class="cls-17" x="217.39" y="38.17" width="2" height="1.18"/><rect class="cls-17" x="219.8" y="38.17" width="2" height="1.18"/><rect class="cls-17" x="222.21" y="38.17" width="2" height="1.18"/><rect class="cls-17" x="224.62" y="38.17" width="2" height="1.18"/><rect class="cls-17" x="214.98" y="39.86" width="2" height="1.18"/><rect class="cls-17" x="217.39" y="39.86" width="2" height="1.18"/><rect class="cls-17" x="219.8" y="39.86" width="2" height="1.18"/><rect class="cls-17" x="222.21" y="39.86" width="2" height="1.18"/><rect class="cls-17" x="224.62" y="39.86" width="2" height="1.18"/><rect class="cls-17" x="214.98" y="41.55" width="2" height="1.18"/><rect class="cls-17" x="217.39" y="41.55" width="2" height="1.18"/><rect class="cls-17" x="219.8" y="41.55" width="2" height="1.18"/><rect class="cls-17" x="222.21" y="41.55" width="2" height="1.18"/><rect class="cls-17" x="224.62" y="41.55" width="2" height="1.18"/><rect class="cls-17" x="214.98" y="44.92" width="2" height="1.18"/><rect class="cls-17" x="217.39" y="44.92" width="2" height="1.18"/><rect class="cls-17" x="219.8" y="44.92" width="2" height="1.18"/><rect class="cls-17" x="222.21" y="44.92" width="2" height="1.18"/><rect class="cls-17" x="224.62" y="44.92" width="2" height="1.18"/><rect class="cls-17" x="214.98" y="43.23" width="2" height="1.18"/><rect class="cls-17" x="217.39" y="43.23" width="2" height="1.18"/><rect class="cls-17" x="219.8" y="43.23" width="2" height="1.18"/><rect class="cls-17" x="222.21" y="43.23" width="2" height="1.18"/><rect class="cls-17" x="224.62" y="43.23" width="2" height="1.18"/><rect class="cls-16" x="173.13" y="49.16" width="12" height="3.54"/><rect class="cls-17" x="173.31" y="53.23" width="2" height="1.18"/><rect class="cls-17" x="175.72" y="53.23" width="2" height="1.18"/><rect class="cls-17" x="178.13" y="53.23" width="2" height="1.18"/><rect class="cls-17" x="180.54" y="53.23" width="2" height="1.18"/><rect class="cls-17" x="182.95" y="53.23" width="2" height="1.18"/><rect class="cls-17" x="173.31" y="54.92" width="2" height="1.18"/><rect class="cls-17" x="175.72" y="54.92" width="2" height="1.18"/><rect class="cls-17" x="178.13" y="54.92" width="2" height="1.18"/><rect class="cls-17" x="180.54" y="54.92" width="2" height="1.18"/><rect class="cls-17" x="182.95" y="54.92" width="2" height="1.18"/><rect class="cls-17" x="173.31" y="56.6" width="2" height="1.18"/><rect class="cls-17" x="175.72" y="56.6" width="2" height="1.18"/><rect class="cls-17" x="178.13" y="56.6" width="2" height="1.18"/><rect class="cls-17" x="180.54" y="56.6" width="2" height="1.18"/><rect class="cls-17" x="182.95" y="56.6" width="2" height="1.18"/><rect class="cls-17" x="173.31" y="59.98" width="2" height="1.18"/><rect class="cls-17" x="175.72" y="59.98" width="2" height="1.18"/><rect class="cls-17" x="178.13" y="59.98" width="2" height="1.18"/><rect class="cls-17" x="180.54" y="59.98" width="2" height="1.18"/><rect class="cls-17" x="182.95" y="59.98" width="2" height="1.18"/><rect class="cls-17" x="173.31" y="58.29" width="2" height="1.18"/><rect class="cls-17" x="175.72" y="58.29" width="2" height="1.18"/><rect class="cls-17" x="178.13" y="58.29" width="2" height="1.18"/><rect class="cls-17" x="180.54" y="58.29" width="2" height="1.18"/><rect class="cls-17" x="182.95" y="58.29" width="2" height="1.18"/><rect class="cls-16" x="187.02" y="49.16" width="12" height="3.54"/><rect class="cls-17" x="187.2" y="53.23" width="2" height="1.18"/><rect class="cls-17" x="189.61" y="53.23" width="2" height="1.18"/><rect class="cls-17" x="192.02" y="53.23" width="2" height="1.18"/><rect class="cls-17" x="194.43" y="53.23" width="2" height="1.18"/><rect class="cls-17" x="196.84" y="53.23" width="2" height="1.18"/><rect class="cls-17" x="187.2" y="54.92" width="2" height="1.18"/><rect class="cls-17" x="189.61" y="54.92" width="2" height="1.18"/><rect class="cls-17" x="192.02" y="54.92" width="2" height="1.18"/><rect class="cls-17" x="194.43" y="54.92" width="2" height="1.18"/><rect class="cls-17" x="196.84" y="54.92" width="2" height="1.18"/><rect class="cls-17" x="187.2" y="56.6" width="2" height="1.18"/><rect class="cls-17" x="189.61" y="56.6" width="2" height="1.18"/><rect class="cls-17" x="192.02" y="56.6" width="2" height="1.18"/><rect class="cls-17" x="194.43" y="56.6" width="2" height="1.18"/><rect class="cls-17" x="196.84" y="56.6" width="2" height="1.18"/><rect class="cls-17" x="187.2" y="59.98" width="2" height="1.18"/><rect class="cls-17" x="189.61" y="59.98" width="2" height="1.18"/><rect class="cls-17" x="192.02" y="59.98" width="2" height="1.18"/><rect class="cls-17" x="194.43" y="59.98" width="2" height="1.18"/><rect class="cls-17" x="196.84" y="59.98" width="2" height="1.18"/><rect class="cls-17" x="187.2" y="58.29" width="2" height="1.18"/><rect class="cls-17" x="189.61" y="58.29" width="2" height="1.18"/><rect class="cls-17" x="192.02" y="58.29" width="2" height="1.18"/><rect class="cls-17" x="194.43" y="58.29" width="2" height="1.18"/><rect class="cls-17" x="196.84" y="58.29" width="2" height="1.18"/><rect class="cls-16" x="200.91" y="49.16" width="12" height="3.54"/><rect class="cls-17" x="201.09" y="53.23" width="2" height="1.18"/><rect class="cls-17" x="203.5" y="53.23" width="2" height="1.18"/><rect class="cls-17" x="205.91" y="53.23" width="2" height="1.18"/><rect class="cls-17" x="208.32" y="53.23" width="2" height="1.18"/><rect class="cls-17" x="210.73" y="53.23" width="2" height="1.18"/><rect class="cls-17" x="201.09" y="54.92" width="2" height="1.18"/><rect class="cls-17" x="203.5" y="54.92" width="2" height="1.18"/><rect class="cls-17" x="205.91" y="54.92" width="2" height="1.18"/><rect class="cls-17" x="208.32" y="54.92" width="2" height="1.18"/><rect class="cls-17" x="210.73" y="54.92" width="2" height="1.18"/><rect class="cls-17" x="201.09" y="56.6" width="2" height="1.18"/><rect class="cls-17" x="203.5" y="56.6" width="2" height="1.18"/><rect class="cls-17" x="205.91" y="56.6" width="2" height="1.18"/><rect class="cls-17" x="208.32" y="56.6" width="2" height="1.18"/><rect class="cls-17" x="210.73" y="56.6" width="2" height="1.18"/><rect class="cls-17" x="201.09" y="59.98" width="2" height="1.18"/><rect class="cls-17" x="203.5" y="59.98" width="2" height="1.18"/><rect class="cls-17" x="205.91" y="59.98" width="2" height="1.18"/><rect class="cls-17" x="208.32" y="59.98" width="2" height="1.18"/><rect class="cls-17" x="210.73" y="59.98" width="2" height="1.18"/><rect class="cls-17" x="201.09" y="58.29" width="2" height="1.18"/><rect class="cls-17" x="203.5" y="58.29" width="2" height="1.18"/><rect class="cls-17" x="205.91" y="58.29" width="2" height="1.18"/><rect class="cls-17" x="208.32" y="58.29" width="2" height="1.18"/><rect class="cls-17" x="210.73" y="58.29" width="2" height="1.18"/><rect class="cls-16" x="214.8" y="49.16" width="12" height="3.54"/><rect class="cls-17" x="214.98" y="53.23" width="2" height="1.18"/><rect class="cls-17" x="217.39" y="53.23" width="2" height="1.18"/><rect class="cls-17" x="219.8" y="53.23" width="2" height="1.18"/><rect class="cls-17" x="222.21" y="53.23" width="2" height="1.18"/><rect class="cls-17" x="224.62" y="53.23" width="2" height="1.18"/><rect class="cls-17" x="214.98" y="54.92" width="2" height="1.18"/><rect class="cls-17" x="217.39" y="54.92" width="2" height="1.18"/><rect class="cls-17" x="219.8" y="54.92" width="2" height="1.18"/><rect class="cls-17" x="222.21" y="54.92" width="2" height="1.18"/><rect class="cls-17" x="224.62" y="54.92" width="2" height="1.18"/><rect class="cls-17" x="214.98" y="56.6" width="2" height="1.18"/><rect class="cls-17" x="217.39" y="56.6" width="2" height="1.18"/><rect class="cls-17" x="219.8" y="56.6" width="2" height="1.18"/><rect class="cls-17" x="222.21" y="56.6" width="2" height="1.18"/><rect class="cls-17" x="224.62" y="56.6" width="2" height="1.18"/><rect class="cls-17" x="214.98" y="59.98" width="2" height="1.18"/><rect class="cls-17" x="217.39" y="59.98" width="2" height="1.18"/><rect class="cls-17" x="219.8" y="59.98" width="2" height="1.18"/><rect class="cls-17" x="222.21" y="59.98" width="2" height="1.18"/><rect class="cls-17" x="224.62" y="59.98" width="2" height="1.18"/><rect class="cls-17" x="214.98" y="58.29" width="2" height="1.18"/><rect class="cls-17" x="217.39" y="58.29" width="2" height="1.18"/><rect class="cls-17" x="219.8" y="58.29" width="2" height="1.18"/><rect class="cls-17" x="222.21" y="58.29" width="2" height="1.18"/><rect class="cls-17" x="224.62" y="58.29" width="2" height="1.18"/><rect class="cls-16" x="173.13" y="64.22" width="12" height="3.54"/><rect class="cls-17" x="173.31" y="68.29" width="2" height="1.18"/><rect class="cls-17" x="175.72" y="68.29" width="2" height="1.18"/><rect class="cls-17" x="178.13" y="68.29" width="2" height="1.18"/><rect class="cls-17" x="180.54" y="68.29" width="2" height="1.18"/><rect class="cls-17" x="182.95" y="68.29" width="2" height="1.18"/><rect class="cls-17" x="173.31" y="69.98" width="2" height="1.18"/><rect class="cls-17" x="175.72" y="69.98" width="2" height="1.18"/><rect class="cls-17" x="178.13" y="69.98" width="2" height="1.18"/><rect class="cls-17" x="180.54" y="69.98" width="2" height="1.18"/><rect class="cls-17" x="182.95" y="69.98" width="2" height="1.18"/><rect class="cls-17" x="173.31" y="71.66" width="2" height="1.18"/><rect class="cls-17" x="175.72" y="71.66" width="2" height="1.18"/><rect class="cls-17" x="178.13" y="71.66" width="2" height="1.18"/><rect class="cls-17" x="180.54" y="71.66" width="2" height="1.18"/><rect class="cls-17" x="182.95" y="71.66" width="2" height="1.18"/><rect class="cls-17" x="173.31" y="75.04" width="2" height="1.18"/><rect class="cls-17" x="175.72" y="75.04" width="2" height="1.18"/><rect class="cls-17" x="178.13" y="75.04" width="2" height="1.18"/><rect class="cls-17" x="180.54" y="75.04" width="2" height="1.18"/><rect class="cls-17" x="182.95" y="75.04" width="2" height="1.18"/><rect class="cls-17" x="173.31" y="73.35" width="2" height="1.18"/><rect class="cls-17" x="175.72" y="73.35" width="2" height="1.18"/><rect class="cls-17" x="178.13" y="73.35" width="2" height="1.18"/><rect class="cls-17" x="180.54" y="73.35" width="2" height="1.18"/><rect class="cls-17" x="182.95" y="73.35" width="2" height="1.18"/><rect class="cls-16" x="187.02" y="64.22" width="12" height="3.54"/><rect class="cls-17" x="187.2" y="68.29" width="2" height="1.18"/><rect class="cls-17" x="189.61" y="68.29" width="2" height="1.18"/><rect class="cls-17" x="192.02" y="68.29" width="2" height="1.18"/><rect class="cls-17" x="194.43" y="68.29" width="2" height="1.18"/><rect class="cls-17" x="196.84" y="68.29" width="2" height="1.18"/><rect class="cls-17" x="187.2" y="69.98" width="2" height="1.18"/><rect class="cls-17" x="189.61" y="69.98" width="2" height="1.18"/><rect class="cls-17" x="192.02" y="69.98" width="2" height="1.18"/><rect class="cls-17" x="194.43" y="69.98" width="2" height="1.18"/><rect class="cls-17" x="196.84" y="69.98" width="2" height="1.18"/><rect class="cls-17" x="187.2" y="71.66" width="2" height="1.18"/><rect class="cls-17" x="189.61" y="71.66" width="2" height="1.18"/><rect class="cls-17" x="192.02" y="71.66" width="2" height="1.18"/><rect class="cls-17" x="194.43" y="71.66" width="2" height="1.18"/><rect class="cls-17" x="196.84" y="71.66" width="2" height="1.18"/><rect class="cls-17" x="187.2" y="75.04" width="2" height="1.18"/><rect class="cls-17" x="189.61" y="75.04" width="2" height="1.18"/><rect class="cls-17" x="192.02" y="75.04" width="2" height="1.18"/><rect class="cls-17" x="194.43" y="75.04" width="2" height="1.18"/><rect class="cls-17" x="196.84" y="75.04" width="2" height="1.18"/><rect class="cls-17" x="187.2" y="73.35" width="2" height="1.18"/><rect class="cls-17" x="189.61" y="73.35" width="2" height="1.18"/><rect class="cls-17" x="192.02" y="73.35" width="2" height="1.18"/><rect class="cls-17" x="194.43" y="73.35" width="2" height="1.18"/><rect class="cls-17" x="196.84" y="73.35" width="2" height="1.18"/><rect class="cls-16" x="200.91" y="64.22" width="12" height="3.54"/><rect class="cls-17" x="201.09" y="68.29" width="2" height="1.18"/><rect class="cls-17" x="203.5" y="68.29" width="2" height="1.18"/><rect class="cls-17" x="205.91" y="68.29" width="2" height="1.18"/><rect class="cls-17" x="208.32" y="68.29" width="2" height="1.18"/><rect class="cls-17" x="210.73" y="68.29" width="2" height="1.18"/><rect class="cls-17" x="201.09" y="69.98" width="2" height="1.18"/><rect class="cls-17" x="203.5" y="69.98" width="2" height="1.18"/><rect class="cls-17" x="205.91" y="69.98" width="2" height="1.18"/><rect class="cls-17" x="208.32" y="69.98" width="2" height="1.18"/><rect class="cls-17" x="210.73" y="69.98" width="2" height="1.18"/><rect class="cls-17" x="201.09" y="71.66" width="2" height="1.18"/><rect class="cls-17" x="203.5" y="71.66" width="2" height="1.18"/><rect class="cls-17" x="205.91" y="71.66" width="2" height="1.18"/><rect class="cls-17" x="208.32" y="71.66" width="2" height="1.18"/><rect class="cls-17" x="210.73" y="71.66" width="2" height="1.18"/><rect class="cls-17" x="201.09" y="75.04" width="2" height="1.18"/><rect class="cls-17" x="203.5" y="75.04" width="2" height="1.18"/><rect class="cls-17" x="205.91" y="75.04" width="2" height="1.18"/><rect class="cls-17" x="208.32" y="75.04" width="2" height="1.18"/><rect class="cls-17" x="210.73" y="75.04" width="2" height="1.18"/><rect class="cls-17" x="201.09" y="73.35" width="2" height="1.18"/><rect class="cls-17" x="203.5" y="73.35" width="2" height="1.18"/><rect class="cls-17" x="205.91" y="73.35" width="2" height="1.18"/><rect class="cls-17" x="208.32" y="73.35" width="2" height="1.18"/><rect class="cls-17" x="210.73" y="73.35" width="2" height="1.18"/><rect class="cls-16" x="214.8" y="64.22" width="12" height="3.54"/><rect class="cls-17" x="214.98" y="68.29" width="2" height="1.18"/><rect class="cls-17" x="217.39" y="68.29" width="2" height="1.18"/><rect class="cls-17" x="219.8" y="68.29" width="2" height="1.18"/><rect class="cls-17" x="222.21" y="68.29" width="2" height="1.18"/><rect class="cls-17" x="224.62" y="68.29" width="2" height="1.18"/><rect class="cls-17" x="214.98" y="69.98" width="2" height="1.18"/><rect class="cls-17" x="217.39" y="69.98" width="2" height="1.18"/><rect class="cls-17" x="219.8" y="69.98" width="2" height="1.18"/><rect class="cls-17" x="222.21" y="69.98" width="2" height="1.18"/><rect class="cls-17" x="224.62" y="69.98" width="2" height="1.18"/><rect class="cls-17" x="214.98" y="71.66" width="2" height="1.18"/><rect class="cls-17" x="217.39" y="71.66" width="2" height="1.18"/><rect class="cls-17" x="219.8" y="71.66" width="2" height="1.18"/><rect class="cls-17" x="222.21" y="71.66" width="2" height="1.18"/><rect class="cls-17" x="224.62" y="71.66" width="2" height="1.18"/><rect class="cls-17" x="214.98" y="75.04" width="2" height="1.18"/><rect class="cls-17" x="217.39" y="75.04" width="2" height="1.18"/><rect class="cls-17" x="219.8" y="75.04" width="2" height="1.18"/><rect class="cls-17" x="222.21" y="75.04" width="2" height="1.18"/><rect class="cls-17" x="224.62" y="75.04" width="2" height="1.18"/><rect class="cls-17" x="214.98" y="73.35" width="2" height="1.18"/><rect class="cls-17" x="217.39" y="73.35" width="2" height="1.18"/><rect class="cls-17" x="219.8" y="73.35" width="2" height="1.18"/><rect class="cls-17" x="222.21" y="73.35" width="2" height="1.18"/><rect class="cls-17" x="224.62" y="73.35" width="2" height="1.18"/><text class="cls-18" transform="translate(186.87 28.33)">2020</text><rect class="cls-19" x="88.28" y="23.72" width="64" height="56.69"/><rect class="cls-20" x="88.28" y="23.34" width="64" height="24"/><rect class="cls-15" x="137.76" y="27.25" width="10.77" height="15.25"/><path class="cls-9" d="M148.76,45.5h9.76V59.76h-9.76V45.5m-1-1V60.76h11.76V44.5Z" transform="translate(-10.5 -17.76)"/><rect class="cls-16" x="138.26" y="30.98" width="2.21" height="0.78"/><rect class="cls-17" x="138.29" y="31.87" width="0.37" height="0.26"/><rect class="cls-17" x="138.73" y="31.87" width="0.37" height="0.26"/><rect class="cls-17" x="139.17" y="31.87" width="0.37" height="0.26"/><rect class="cls-17" x="139.62" y="31.87" width="0.37" height="0.26"/><rect class="cls-17" x="140.06" y="31.87" width="0.37" height="0.26"/><rect class="cls-17" x="138.29" y="32.24" width="0.37" height="0.26"/><rect class="cls-17" x="138.73" y="32.24" width="0.37" height="0.26"/><rect class="cls-17" x="139.17" y="32.24" width="0.37" height="0.26"/><rect class="cls-17" x="139.62" y="32.24" width="0.37" height="0.26"/><rect class="cls-17" x="140.06" y="32.24" width="0.37" height="0.26"/><rect class="cls-17" x="138.29" y="32.61" width="0.37" height="0.26"/><rect class="cls-17" x="138.73" y="32.61" width="0.37" height="0.26"/><rect class="cls-17" x="139.17" y="32.61" width="0.37" height="0.26"/><rect class="cls-17" x="139.62" y="32.61" width="0.37" height="0.26"/><rect class="cls-17" x="140.06" y="32.61" width="0.37" height="0.26"/><rect class="cls-17" x="138.29" y="33.35" width="0.37" height="0.26"/><rect class="cls-17" x="138.73" y="33.35" width="0.37" height="0.26"/><rect class="cls-17" x="139.17" y="33.35" width="0.37" height="0.26"/><rect class="cls-17" x="139.62" y="33.35" width="0.37" height="0.26"/><rect class="cls-17" x="140.06" y="33.35" width="0.37" height="0.26"/><rect class="cls-17" x="138.29" y="32.98" width="0.37" height="0.26"/><rect class="cls-17" x="138.73" y="32.98" width="0.37" height="0.26"/><rect class="cls-17" x="139.17" y="32.98" width="0.37" height="0.26"/><rect class="cls-17" x="139.62" y="32.98" width="0.37" height="0.26"/><rect class="cls-17" x="140.06" y="32.98" width="0.37" height="0.26"/><rect class="cls-16" x="140.81" y="30.98" width="2.21" height="0.78"/><rect class="cls-17" x="140.84" y="31.87" width="0.37" height="0.26"/><rect class="cls-17" x="141.29" y="31.87" width="0.37" height="0.26"/><rect class="cls-17" x="141.73" y="31.87" width="0.37" height="0.26"/><rect class="cls-17" x="142.17" y="31.87" width="0.37" height="0.26"/><rect class="cls-17" x="142.61" y="31.87" width="0.37" height="0.26"/><rect class="cls-17" x="140.84" y="32.24" width="0.37" height="0.26"/><rect class="cls-17" x="141.29" y="32.24" width="0.37" height="0.26"/><rect class="cls-17" x="141.73" y="32.24" width="0.37" height="0.26"/><rect class="cls-17" x="142.17" y="32.24" width="0.37" height="0.26"/><rect class="cls-17" x="142.61" y="32.24" width="0.37" height="0.26"/><rect class="cls-17" x="140.84" y="32.61" width="0.37" height="0.26"/><rect class="cls-17" x="141.29" y="32.61" width="0.37" height="0.26"/><rect class="cls-17" x="141.73" y="32.61" width="0.37" height="0.26"/><rect class="cls-17" x="142.17" y="32.61" width="0.37" height="0.26"/><rect class="cls-17" x="142.61" y="32.61" width="0.37" height="0.26"/><rect class="cls-17" x="140.84" y="33.35" width="0.37" height="0.26"/><rect class="cls-17" x="141.29" y="33.35" width="0.37" height="0.26"/><rect class="cls-17" x="141.73" y="33.35" width="0.37" height="0.26"/><rect class="cls-17" x="142.17" y="33.35" width="0.37" height="0.26"/><rect class="cls-17" x="142.61" y="33.35" width="0.37" height="0.26"/><rect class="cls-17" x="140.84" y="32.98" width="0.37" height="0.26"/><rect class="cls-17" x="141.29" y="32.98" width="0.37" height="0.26"/><rect class="cls-17" x="141.73" y="32.98" width="0.37" height="0.26"/><rect class="cls-17" x="142.17" y="32.98" width="0.37" height="0.26"/><rect class="cls-17" x="142.61" y="32.98" width="0.37" height="0.26"/><rect class="cls-16" x="143.36" y="30.98" width="2.21" height="0.78"/><rect class="cls-17" x="143.4" y="31.87" width="0.37" height="0.26"/><rect class="cls-17" x="143.84" y="31.87" width="0.37" height="0.26"/><rect class="cls-17" x="144.28" y="31.87" width="0.37" height="0.26"/><rect class="cls-17" x="144.72" y="31.87" width="0.37" height="0.26"/><rect class="cls-17" x="145.17" y="31.87" width="0.37" height="0.26"/><rect class="cls-17" x="143.4" y="32.24" width="0.37" height="0.26"/><rect class="cls-17" x="143.84" y="32.24" width="0.37" height="0.26"/><rect class="cls-17" x="144.28" y="32.24" width="0.37" height="0.26"/><rect class="cls-17" x="144.72" y="32.24" width="0.37" height="0.26"/><rect class="cls-17" x="145.17" y="32.24" width="0.37" height="0.26"/><rect class="cls-17" x="143.4" y="32.61" width="0.37" height="0.26"/><rect class="cls-17" x="143.84" y="32.61" width="0.37" height="0.26"/><rect class="cls-17" x="144.28" y="32.61" width="0.37" height="0.26"/><rect class="cls-17" x="144.72" y="32.61" width="0.37" height="0.26"/><rect class="cls-17" x="145.17" y="32.61" width="0.37" height="0.26"/><rect class="cls-17" x="143.4" y="33.35" width="0.37" height="0.26"/><rect class="cls-17" x="143.84" y="33.35" width="0.37" height="0.26"/><rect class="cls-17" x="144.28" y="33.35" width="0.37" height="0.26"/><rect class="cls-17" x="144.72" y="33.35" width="0.37" height="0.26"/><rect class="cls-17" x="145.17" y="33.35" width="0.37" height="0.26"/><rect class="cls-17" x="143.4" y="32.98" width="0.37" height="0.26"/><rect class="cls-17" x="143.84" y="32.98" width="0.37" height="0.26"/><rect class="cls-17" x="144.28" y="32.98" width="0.37" height="0.26"/><rect class="cls-17" x="144.72" y="32.98" width="0.37" height="0.26"/><rect class="cls-17" x="145.17" y="32.98" width="0.37" height="0.26"/><rect class="cls-16" x="145.92" y="30.98" width="2.21" height="0.78"/><rect class="cls-17" x="145.95" y="31.87" width="0.37" height="0.26"/><rect class="cls-17" x="146.39" y="31.87" width="0.37" height="0.26"/><rect class="cls-17" x="146.84" y="31.87" width="0.37" height="0.26"/><rect class="cls-17" x="147.28" y="31.87" width="0.37" height="0.26"/><rect class="cls-17" x="147.72" y="31.87" width="0.37" height="0.26"/><rect class="cls-17" x="145.95" y="32.24" width="0.37" height="0.26"/><rect class="cls-17" x="146.39" y="32.24" width="0.37" height="0.26"/><rect class="cls-17" x="146.84" y="32.24" width="0.37" height="0.26"/><rect class="cls-17" x="147.28" y="32.24" width="0.37" height="0.26"/><rect class="cls-17" x="147.72" y="32.24" width="0.37" height="0.26"/><rect class="cls-17" x="145.95" y="32.61" width="0.37" height="0.26"/><rect class="cls-17" x="146.39" y="32.61" width="0.37" height="0.26"/><rect class="cls-17" x="146.84" y="32.61" width="0.37" height="0.26"/><rect class="cls-17" x="147.28" y="32.61" width="0.37" height="0.26"/><rect class="cls-17" x="147.72" y="32.61" width="0.37" height="0.26"/><rect class="cls-17" x="145.95" y="33.35" width="0.37" height="0.26"/><rect class="cls-17" x="146.39" y="33.35" width="0.37" height="0.26"/><rect class="cls-17" x="146.84" y="33.35" width="0.37" height="0.26"/><rect class="cls-17" x="147.28" y="33.35" width="0.37" height="0.26"/><rect class="cls-17" x="147.72" y="33.35" width="0.37" height="0.26"/><rect class="cls-17" x="145.95" y="32.98" width="0.37" height="0.26"/><rect class="cls-17" x="146.39" y="32.98" width="0.37" height="0.26"/><rect class="cls-17" x="146.84" y="32.98" width="0.37" height="0.26"/><rect class="cls-17" x="147.28" y="32.98" width="0.37" height="0.26"/><rect class="cls-17" x="147.72" y="32.98" width="0.37" height="0.26"/><rect class="cls-16" x="138.26" y="34.28" width="2.21" height="0.78"/><rect class="cls-17" x="138.29" y="35.17" width="0.37" height="0.26"/><rect class="cls-17" x="138.73" y="35.17" width="0.37" height="0.26"/><rect class="cls-17" x="139.17" y="35.17" width="0.37" height="0.26"/><rect class="cls-17" x="139.62" y="35.17" width="0.37" height="0.26"/><rect class="cls-17" x="140.06" y="35.17" width="0.37" height="0.26"/><rect class="cls-17" x="138.29" y="35.54" width="0.37" height="0.26"/><rect class="cls-17" x="138.73" y="35.54" width="0.37" height="0.26"/><rect class="cls-17" x="139.17" y="35.54" width="0.37" height="0.26"/><rect class="cls-17" x="139.62" y="35.54" width="0.37" height="0.26"/><rect class="cls-17" x="140.06" y="35.54" width="0.37" height="0.26"/><rect class="cls-17" x="138.29" y="35.91" width="0.37" height="0.26"/><rect class="cls-17" x="138.73" y="35.91" width="0.37" height="0.26"/><rect class="cls-17" x="139.17" y="35.91" width="0.37" height="0.26"/><rect class="cls-17" x="139.62" y="35.91" width="0.37" height="0.26"/><rect class="cls-17" x="140.06" y="35.91" width="0.37" height="0.26"/><rect class="cls-17" x="138.29" y="36.65" width="0.37" height="0.26"/><rect class="cls-17" x="138.73" y="36.65" width="0.37" height="0.26"/><rect class="cls-17" x="139.17" y="36.65" width="0.37" height="0.26"/><rect class="cls-17" x="139.62" y="36.65" width="0.37" height="0.26"/><rect class="cls-17" x="140.06" y="36.65" width="0.37" height="0.26"/><rect class="cls-17" x="138.29" y="36.28" width="0.37" height="0.26"/><rect class="cls-17" x="138.73" y="36.28" width="0.37" height="0.26"/><rect class="cls-17" x="139.17" y="36.28" width="0.37" height="0.26"/><rect class="cls-17" x="139.62" y="36.28" width="0.37" height="0.26"/><rect class="cls-17" x="140.06" y="36.28" width="0.37" height="0.26"/><rect class="cls-16" x="140.81" y="34.28" width="2.21" height="0.78"/><rect class="cls-17" x="140.84" y="35.17" width="0.37" height="0.26"/><rect class="cls-17" x="141.29" y="35.17" width="0.37" height="0.26"/><rect class="cls-17" x="141.73" y="35.17" width="0.37" height="0.26"/><rect class="cls-17" x="142.17" y="35.17" width="0.37" height="0.26"/><rect class="cls-17" x="142.61" y="35.17" width="0.37" height="0.26"/><rect class="cls-17" x="140.84" y="35.54" width="0.37" height="0.26"/><rect class="cls-17" x="141.29" y="35.54" width="0.37" height="0.26"/><rect class="cls-17" x="141.73" y="35.54" width="0.37" height="0.26"/><rect class="cls-17" x="142.17" y="35.54" width="0.37" height="0.26"/><rect class="cls-17" x="142.61" y="35.54" width="0.37" height="0.26"/><rect class="cls-17" x="140.84" y="35.91" width="0.37" height="0.26"/><rect class="cls-17" x="141.29" y="35.91" width="0.37" height="0.26"/><rect class="cls-17" x="141.73" y="35.91" width="0.37" height="0.26"/><rect class="cls-17" x="142.17" y="35.91" width="0.37" height="0.26"/><rect class="cls-17" x="142.61" y="35.91" width="0.37" height="0.26"/><rect class="cls-17" x="140.84" y="36.65" width="0.37" height="0.26"/><rect class="cls-17" x="141.29" y="36.65" width="0.37" height="0.26"/><rect class="cls-17" x="141.73" y="36.65" width="0.37" height="0.26"/><rect class="cls-17" x="142.17" y="36.65" width="0.37" height="0.26"/><rect class="cls-17" x="142.61" y="36.65" width="0.37" height="0.26"/><rect class="cls-17" x="140.84" y="36.28" width="0.37" height="0.26"/><rect class="cls-17" x="141.29" y="36.28" width="0.37" height="0.26"/><rect class="cls-17" x="141.73" y="36.28" width="0.37" height="0.26"/><rect class="cls-17" x="142.17" y="36.28" width="0.37" height="0.26"/><rect class="cls-17" x="142.61" y="36.28" width="0.37" height="0.26"/><rect class="cls-16" x="143.36" y="34.28" width="2.21" height="0.78"/><rect class="cls-17" x="143.4" y="35.17" width="0.37" height="0.26"/><rect class="cls-17" x="143.84" y="35.17" width="0.37" height="0.26"/><rect class="cls-17" x="144.28" y="35.17" width="0.37" height="0.26"/><rect class="cls-17" x="144.72" y="35.17" width="0.37" height="0.26"/><rect class="cls-17" x="145.17" y="35.17" width="0.37" height="0.26"/><rect class="cls-17" x="143.4" y="35.54" width="0.37" height="0.26"/><rect class="cls-17" x="143.84" y="35.54" width="0.37" height="0.26"/><rect class="cls-17" x="144.28" y="35.54" width="0.37" height="0.26"/><rect class="cls-17" x="144.72" y="35.54" width="0.37" height="0.26"/><rect class="cls-17" x="145.17" y="35.54" width="0.37" height="0.26"/><rect class="cls-17" x="143.4" y="35.91" width="0.37" height="0.26"/><rect class="cls-17" x="143.84" y="35.91" width="0.37" height="0.26"/><rect class="cls-17" x="144.28" y="35.91" width="0.37" height="0.26"/><rect class="cls-17" x="144.72" y="35.91" width="0.37" height="0.26"/><rect class="cls-17" x="145.17" y="35.91" width="0.37" height="0.26"/><rect class="cls-17" x="143.4" y="36.65" width="0.37" height="0.26"/><rect class="cls-17" x="143.84" y="36.65" width="0.37" height="0.26"/><rect class="cls-17" x="144.28" y="36.65" width="0.37" height="0.26"/><rect class="cls-17" x="144.72" y="36.65" width="0.37" height="0.26"/><rect class="cls-17" x="145.17" y="36.65" width="0.37" height="0.26"/><rect class="cls-17" x="143.4" y="36.28" width="0.37" height="0.26"/><rect class="cls-17" x="143.84" y="36.28" width="0.37" height="0.26"/><rect class="cls-17" x="144.28" y="36.28" width="0.37" height="0.26"/><rect class="cls-17" x="144.72" y="36.28" width="0.37" height="0.26"/><rect class="cls-17" x="145.17" y="36.28" width="0.37" height="0.26"/><rect class="cls-16" x="145.92" y="34.28" width="2.21" height="0.78"/><rect class="cls-17" x="145.95" y="35.17" width="0.37" height="0.26"/><rect class="cls-17" x="146.39" y="35.17" width="0.37" height="0.26"/><rect class="cls-17" x="146.84" y="35.17" width="0.37" height="0.26"/><rect class="cls-17" x="147.28" y="35.17" width="0.37" height="0.26"/><rect class="cls-17" x="147.72" y="35.17" width="0.37" height="0.26"/><rect class="cls-17" x="145.95" y="35.54" width="0.37" height="0.26"/><rect class="cls-17" x="146.39" y="35.54" width="0.37" height="0.26"/><rect class="cls-17" x="146.84" y="35.54" width="0.37" height="0.26"/><rect class="cls-17" x="147.28" y="35.54" width="0.37" height="0.26"/><rect class="cls-17" x="147.72" y="35.54" width="0.37" height="0.26"/><rect class="cls-17" x="145.95" y="35.91" width="0.37" height="0.26"/><rect class="cls-17" x="146.39" y="35.91" width="0.37" height="0.26"/><rect class="cls-17" x="146.84" y="35.91" width="0.37" height="0.26"/><rect class="cls-17" x="147.28" y="35.91" width="0.37" height="0.26"/><rect class="cls-17" x="147.72" y="35.91" width="0.37" height="0.26"/><rect class="cls-17" x="145.95" y="36.65" width="0.37" height="0.26"/><rect class="cls-17" x="146.39" y="36.65" width="0.37" height="0.26"/><rect class="cls-17" x="146.84" y="36.65" width="0.37" height="0.26"/><rect class="cls-17" x="147.28" y="36.65" width="0.37" height="0.26"/><rect class="cls-17" x="147.72" y="36.65" width="0.37" height="0.26"/><rect class="cls-17" x="145.95" y="36.28" width="0.37" height="0.26"/><rect class="cls-17" x="146.39" y="36.28" width="0.37" height="0.26"/><rect class="cls-17" x="146.84" y="36.28" width="0.37" height="0.26"/><rect class="cls-17" x="147.28" y="36.28" width="0.37" height="0.26"/><rect class="cls-17" x="147.72" y="36.28" width="0.37" height="0.26"/><rect class="cls-16" x="138.26" y="37.58" width="2.21" height="0.78"/><rect class="cls-17" x="138.29" y="38.48" width="0.37" height="0.26"/><rect class="cls-17" x="138.73" y="38.48" width="0.37" height="0.26"/><rect class="cls-17" x="139.17" y="38.48" width="0.37" height="0.26"/><rect class="cls-17" x="139.62" y="38.48" width="0.37" height="0.26"/><rect class="cls-17" x="140.06" y="38.48" width="0.37" height="0.26"/><rect class="cls-17" x="138.29" y="38.85" width="0.37" height="0.26"/><rect class="cls-17" x="138.73" y="38.85" width="0.37" height="0.26"/><rect class="cls-17" x="139.17" y="38.85" width="0.37" height="0.26"/><rect class="cls-17" x="139.62" y="38.85" width="0.37" height="0.26"/><rect class="cls-17" x="140.06" y="38.85" width="0.37" height="0.26"/><rect class="cls-17" x="138.29" y="39.22" width="0.37" height="0.26"/><rect class="cls-17" x="138.73" y="39.22" width="0.37" height="0.26"/><rect class="cls-17" x="139.17" y="39.22" width="0.37" height="0.26"/><rect class="cls-17" x="139.62" y="39.22" width="0.37" height="0.26"/><rect class="cls-17" x="140.06" y="39.22" width="0.37" height="0.26"/><rect class="cls-17" x="138.29" y="39.96" width="0.37" height="0.26"/><rect class="cls-17" x="138.73" y="39.96" width="0.37" height="0.26"/><rect class="cls-17" x="139.17" y="39.96" width="0.37" height="0.26"/><rect class="cls-17" x="139.62" y="39.96" width="0.37" height="0.26"/><rect class="cls-17" x="140.06" y="39.96" width="0.37" height="0.26"/><rect class="cls-17" x="138.29" y="39.59" width="0.37" height="0.26"/><rect class="cls-17" x="138.73" y="39.59" width="0.37" height="0.26"/><rect class="cls-17" x="139.17" y="39.59" width="0.37" height="0.26"/><rect class="cls-17" x="139.62" y="39.59" width="0.37" height="0.26"/><rect class="cls-17" x="140.06" y="39.59" width="0.37" height="0.26"/><rect class="cls-16" x="140.81" y="37.58" width="2.21" height="0.78"/><rect class="cls-17" x="140.84" y="38.48" width="0.37" height="0.26"/><rect class="cls-17" x="141.29" y="38.48" width="0.37" height="0.26"/><rect class="cls-17" x="141.73" y="38.48" width="0.37" height="0.26"/><rect class="cls-17" x="142.17" y="38.48" width="0.37" height="0.26"/><rect class="cls-17" x="142.61" y="38.48" width="0.37" height="0.26"/><rect class="cls-17" x="140.84" y="38.85" width="0.37" height="0.26"/><rect class="cls-17" x="141.29" y="38.85" width="0.37" height="0.26"/><rect class="cls-17" x="141.73" y="38.85" width="0.37" height="0.26"/><rect class="cls-17" x="142.17" y="38.85" width="0.37" height="0.26"/><rect class="cls-17" x="142.61" y="38.85" width="0.37" height="0.26"/><rect class="cls-17" x="140.84" y="39.22" width="0.37" height="0.26"/><rect class="cls-17" x="141.29" y="39.22" width="0.37" height="0.26"/><rect class="cls-17" x="141.73" y="39.22" width="0.37" height="0.26"/><rect class="cls-17" x="142.17" y="39.22" width="0.37" height="0.26"/><rect class="cls-17" x="142.61" y="39.22" width="0.37" height="0.26"/><rect class="cls-17" x="140.84" y="39.96" width="0.37" height="0.26"/><rect class="cls-17" x="141.29" y="39.96" width="0.37" height="0.26"/><rect class="cls-17" x="141.73" y="39.96" width="0.37" height="0.26"/><rect class="cls-17" x="142.17" y="39.96" width="0.37" height="0.26"/><rect class="cls-17" x="142.61" y="39.96" width="0.37" height="0.26"/><rect class="cls-17" x="140.84" y="39.59" width="0.37" height="0.26"/><rect class="cls-17" x="141.29" y="39.59" width="0.37" height="0.26"/><rect class="cls-17" x="141.73" y="39.59" width="0.37" height="0.26"/><rect class="cls-17" x="142.17" y="39.59" width="0.37" height="0.26"/><rect class="cls-17" x="142.61" y="39.59" width="0.37" height="0.26"/><rect class="cls-16" x="143.36" y="37.58" width="2.21" height="0.78"/><rect class="cls-17" x="143.4" y="38.48" width="0.37" height="0.26"/><rect class="cls-17" x="143.84" y="38.48" width="0.37" height="0.26"/><rect class="cls-17" x="144.28" y="38.48" width="0.37" height="0.26"/><rect class="cls-17" x="144.72" y="38.48" width="0.37" height="0.26"/><rect class="cls-17" x="145.17" y="38.48" width="0.37" height="0.26"/><rect class="cls-17" x="143.4" y="38.85" width="0.37" height="0.26"/><rect class="cls-17" x="143.84" y="38.85" width="0.37" height="0.26"/><rect class="cls-17" x="144.28" y="38.85" width="0.37" height="0.26"/><rect class="cls-17" x="144.72" y="38.85" width="0.37" height="0.26"/><rect class="cls-17" x="145.17" y="38.85" width="0.37" height="0.26"/><rect class="cls-17" x="143.4" y="39.22" width="0.37" height="0.26"/><rect class="cls-17" x="143.84" y="39.22" width="0.37" height="0.26"/><rect class="cls-17" x="144.28" y="39.22" width="0.37" height="0.26"/><rect class="cls-17" x="144.72" y="39.22" width="0.37" height="0.26"/><rect class="cls-17" x="145.17" y="39.22" width="0.37" height="0.26"/><rect class="cls-17" x="143.4" y="39.96" width="0.37" height="0.26"/><rect class="cls-17" x="143.84" y="39.96" width="0.37" height="0.26"/><rect class="cls-17" x="144.28" y="39.96" width="0.37" height="0.26"/><rect class="cls-17" x="144.72" y="39.96" width="0.37" height="0.26"/><rect class="cls-17" x="145.17" y="39.96" width="0.37" height="0.26"/><rect class="cls-17" x="143.4" y="39.59" width="0.37" height="0.26"/><rect class="cls-17" x="143.84" y="39.59" width="0.37" height="0.26"/><rect class="cls-17" x="144.28" y="39.59" width="0.37" height="0.26"/><rect class="cls-17" x="144.72" y="39.59" width="0.37" height="0.26"/><rect class="cls-17" x="145.17" y="39.59" width="0.37" height="0.26"/><rect class="cls-16" x="145.92" y="37.58" width="2.21" height="0.78"/><rect class="cls-17" x="145.95" y="38.48" width="0.37" height="0.26"/><rect class="cls-17" x="146.39" y="38.48" width="0.37" height="0.26"/><rect class="cls-17" x="146.84" y="38.48" width="0.37" height="0.26"/><rect class="cls-17" x="147.28" y="38.48" width="0.37" height="0.26"/><rect class="cls-17" x="147.72" y="38.48" width="0.37" height="0.26"/><rect class="cls-17" x="145.95" y="38.85" width="0.37" height="0.26"/><rect class="cls-17" x="146.39" y="38.85" width="0.37" height="0.26"/><rect class="cls-17" x="146.84" y="38.85" width="0.37" height="0.26"/><rect class="cls-17" x="147.28" y="38.85" width="0.37" height="0.26"/><rect class="cls-17" x="147.72" y="38.85" width="0.37" height="0.26"/><rect class="cls-17" x="145.95" y="39.22" width="0.37" height="0.26"/><rect class="cls-17" x="146.39" y="39.22" width="0.37" height="0.26"/><rect class="cls-17" x="146.84" y="39.22" width="0.37" height="0.26"/><rect class="cls-17" x="147.28" y="39.22" width="0.37" height="0.26"/><rect class="cls-17" x="147.72" y="39.22" width="0.37" height="0.26"/><rect class="cls-17" x="145.95" y="39.96" width="0.37" height="0.26"/><rect class="cls-17" x="146.39" y="39.96" width="0.37" height="0.26"/><rect class="cls-17" x="146.84" y="39.96" width="0.37" height="0.26"/><rect class="cls-17" x="147.28" y="39.96" width="0.37" height="0.26"/><rect class="cls-17" x="147.72" y="39.96" width="0.37" height="0.26"/><rect class="cls-17" x="145.95" y="39.59" width="0.37" height="0.26"/><rect class="cls-17" x="146.39" y="39.59" width="0.37" height="0.26"/><rect class="cls-17" x="146.84" y="39.59" width="0.37" height="0.26"/><rect class="cls-17" x="147.28" y="39.59" width="0.37" height="0.26"/><rect class="cls-17" x="147.72" y="39.59" width="0.37" height="0.26"/><text class="cls-21" transform="translate(140.77 29.71) scale(0.84 1)">2020</text><text class="cls-18" transform="translate(92.81 38.65)">Janua<tspan class="cls-22" x="29.28" y="0">r</tspan><tspan x="33.5" y="0">y</tspan></text><text class="cls-23" transform="translate(109.26 70.77)">21</text></g><g id="Layer_2" data-name="Layer 2"><text class="cls-24" transform="translate(3.54 11.59)">A<tspan class="cls-25" x="7.78" y="0">T</tspan></text><text class="cls-6" transform="translate(83.2 12.16)">ON</text><text class="cls-6" transform="translate(165.12 11.02)">IN</text></g></svg>