<svg xmlns="http://www.w3.org/2000/svg" xmlns:xlink="http://www.w3.org/1999/xlink" viewBox="0 0 205 225.73"><defs><style>.cls-1,.cls-7{fill:#faf2a1;}.cls-2,.cls-9{fill:#759aab;}.cls-13,.cls-16,.cls-3{fill:#191363;}.cls-15,.cls-4,.cls-5{fill:none;}.cls-4,.cls-5{stroke:#191363;}.cls-16,.cls-4,.cls-5,.cls-6,.cls-7,.cls-8,.cls-9{stroke-miterlimit:10;}.cls-4{stroke-width:2px;}.cls-5,.cls-6,.cls-7,.cls-8,.cls-9{stroke-width:0.75px;}.cls-6{fill:#781f22;}.cls-6,.cls-7,.cls-8,.cls-9{stroke:#781f22;}.cls-8{fill:url(#linear-gradient);}.cls-10,.cls-11{font-size:12px;}.cls-10,.cls-12,.cls-17{fill:#fdfffc;}.cls-10,.cls-11,.cls-12,.cls-13,.cls-14{font-family:MyriadPro-Regular, Myriad Pro;}.cls-11{fill:#0fdffc;}.cls-12,.cls-13,.cls-14{font-size:14px;}.cls-16{stroke:#fdfffc;stroke-width:0.25px;}.cls-18{letter-spacing:-0.01em;}</style><linearGradient id="linear-gradient" x1="88.62" y1="37.85" x2="111.94" y2="37.85" gradientUnits="userSpaceOnUse"><stop offset="0" stop-color="#759aab"/><stop offset="0.21" stop-color="#779bac"/><stop offset="0.28" stop-color="#7ea0b0"/><stop offset="0.34" stop-color="#89a9b7"/><stop offset="0.38" stop-color="#9ab6c1"/><stop offset="0.42" stop-color="#b0c6ce"/><stop offset="0.45" stop-color="#ccdadf"/><stop offset="0.48" stop-color="#ebf2f1"/><stop offset="0.49" stop-color="#fdfffc"/><stop offset="0.5" stop-color="#fdfef7"/><stop offset="0.54" stop-color="#fcfadc"/><stop offset="0.58" stop-color="#fbf7c6"/><stop offset="0.63" stop-color="#fbf5b5"/><stop offset="0.68" stop-color="#faf3aa"/><stop offset="0.77" stop-color="#faf2a3"/><stop offset="1" stop-color="#faf2a1"/></linearGradient></defs><title>TimePastTo</title><g id="Layer_2" data-name="Layer 2"><path class="cls-1" d="M127.79,28.56c55.77,0,100.92,44.55,100.84,99.5s-45.35,99.49-101.12,99.49" transform="translate(-25.85 -4.82)"/></g><g id="Layer_4" data-name="Layer 4"><path class="cls-2" d="M127.78,28.14A99.92,99.92,0,1,0,128.35,228" transform="translate(-25.85 -4.82)"/></g><g id="Layer_5" data-name="Layer 5"><path class="cls-3" d="M128.35,28.56a99.5,99.5,0,1,1-99.5,99.5,99.61,99.61,0,0,1,99.5-99.5m0-3a102.5,102.5,0,1,0,102.5,102.5,102.5,102.5,0,0,0-102.5-102.5Z" transform="translate(-25.85 -4.82)"/></g><g id="Layer_6" data-name="Layer 6"><circle class="cls-4" cx="102.15" cy="123.23" r="46"/><circle class="cls-5" cx="102.15" cy="123.23" r="85"/></g><g id="Layer_7" data-name="Layer 7"><circle class="cls-6" cx="101.37" cy="76.95" r="8"/><circle class="cls-6" cx="125.75" cy="84.32" r="8"/><circle class="cls-6" cx="142.47" cy="100.47" r="8"/><circle class="cls-6" cx="147.29" cy="123.18" r="8"/><circle class="cls-6" cx="125.75" cy="161.45" r="8"/><circle class="cls-6" cx="141.34" cy="145.29" r="8"/><circle class="cls-6" cx="101.08" cy="167.94" r="8"/><circle class="cls-6" cx="78.69" cy="163.12" r="8"/><circle class="cls-6" cx="62.25" cy="145.83" r="8"/><circle class="cls-6" cx="77.56" cy="83.47" r="8"/><circle class="cls-6" cx="60.83" cy="99.62" r="8"/><circle class="cls-6" cx="56.01" cy="122.33" r="8"/></g><g id="Layer_8" data-name="Layer 8"><circle class="cls-7" cx="145.35" cy="50.04" r="11.66"/><circle class="cls-8" cx="100.28" cy="37.85" r="11.66"/><circle class="cls-7" cx="174.38" cy="83.96" r="11.66"/><circle class="cls-7" cx="185.81" cy="123.18" r="11.66"/><circle class="cls-7" cx="175.68" cy="163.84" r="11.66"/><circle class="cls-7" cx="142.51" cy="195.99" r="11.66"/><circle class="cls-7" cx="102.18" cy="207.64" r="11.66"/><circle class="cls-9" cx="51.43" cy="191.8" r="11.66"/><circle class="cls-9" cx="23.23" cy="155.29" r="11.66"/><circle class="cls-9" cx="18.06" cy="123.18" r="11.66"/><circle class="cls-9" cx="28.48" cy="81.37" r="11.66"/><circle class="cls-9" cx="58.36" cy="51.26" r="11.66"/></g><g id="Layer_9" data-name="Layer 9"><text class="cls-10" transform="translate(98.53 80.34)">0</text><text class="cls-10" transform="translate(70.94 88.07)">11</text><text class="cls-10" transform="translate(54.4 103.94)">10</text><text class="cls-10" transform="translate(52.8 126.64)">9</text><text class="cls-10" transform="translate(59.1 149.33)">8</text><text class="cls-10" transform="translate(75.08 168.32)">7</text><text class="cls-10" transform="translate(97.97 171.8)">6</text><text class="cls-10" transform="translate(123.12 165.47)">5</text><text class="cls-10" transform="translate(137.68 148.76)">4</text><text class="cls-10" transform="translate(144.55 126.79)">3</text><text class="cls-10" transform="translate(139.95 104.51)">2</text><text class="cls-11" transform="translate(122.56 88.65)">1</text></g><g id="Layer_10" data-name="Layer 10"><text class="cls-12" transform="translate(51.66 55.81)">55</text><text class="cls-12" transform="translate(21.3 85.77)">50</text><text class="cls-12" transform="translate(11.13 127.8)">45</text><text class="cls-12" transform="translate(16.04 160.01)">40</text><text class="cls-12" transform="translate(44.72 196.37)">35</text><text class="cls-13" transform="translate(96.38 212.39)">30</text><text class="cls-13" transform="translate(136.56 200.62)">25</text><text class="cls-13" transform="translate(169.32 168.68)">20</text><text class="cls-13" transform="translate(179.2 127.74)">15</text><text class="cls-13" transform="translate(166.48 88.46)">10</text><text class="cls-13" transform="translate(141.39 54.53)">5</text><text class="cls-14" transform="translate(96.89 41.77)">0</text><text class="cls-12" transform="translate(98.95 11.72)">0</text><path class="cls-15" d="M128,61V192" transform="translate(-25.85 -4.82)"/></g><g id="Layer_11" data-name="Layer 11"><polygon class="cls-16" points="134 104.26 101.32 121.58 103.55 125.9 136.23 108.58 134 104.26"/></g><g id="Layer_12" data-name="Layer 12"><polygon class="cls-16" points="136.1 59.98 100.78 121.85 104.37 123.72 139.69 61.85 136.1 59.98"/></g><g id="Layer_3" data-name="Layer 3"><path class="cls-3" d="M128.39,132.11a4.1,4.1,0,1,1,4.1-4.09A4.09,4.09,0,0,1,128.39,132.11Z" transform="translate(-25.85 -4.82)"/><path class="cls-17" d="M128.39,124.05a4,4,0,1,1-4,4,4,4,0,0,1,4-4m0-.25a4.22,4.22,0,1,0,4.22,4.22,4.22,4.22,0,0,0-4.22-4.22Z" transform="translate(-25.85 -4.82)"/></g><g id="Layer_13" data-name="Layer 13"><text class="cls-14" transform="translate(107.25 140.75)">past</text><text class="cls-14" transform="translate(78.66 140.74)"><tspan class="cls-18">t</tspan><tspan x="4.55" y="0">o</tspan></text></g></svg>