<svg xmlns="http://www.w3.org/2000/svg" viewBox="0 0 205 225.73"><defs><style>.cls-1,.cls-10,.cls-13,.cls-14,.cls-3,.cls-5,.cls-6,.cls-8{opacity:0.35;}.cls-11,.cls-2,.cls-8{fill:#191363;}.cls-3,.cls-4{fill:#781f22;}.cls-13,.cls-15,.cls-17,.cls-3,.cls-4,.cls-5{stroke:#781f22;}.cls-11,.cls-13,.cls-15,.cls-17,.cls-3,.cls-4,.cls-5{stroke-miterlimit:10;}.cls-13,.cls-15,.cls-3,.cls-4,.cls-5{stroke-width:0.75px;}.cls-12,.cls-14,.cls-16,.cls-5,.cls-6,.cls-7,.cls-9{fill:#fdfffc;}.cls-6,.cls-7{font-size:12px;}.cls-14,.cls-16,.cls-6,.cls-7,.cls-8,.cls-9{font-family:MyriadPro-Regular, Myriad Pro;}.cls-14,.cls-16,.cls-8,.cls-9{font-size:14px;}.cls-10{fill:none;}.cls-11{stroke:#fdfffc;stroke-width:0.25px;}.cls-13,.cls-15,.cls-17{fill:#e68c18;}.cls-15,.cls-16{opacity:0.97;}</style></defs><title>TimeHalf30</title><g id="Layer_5" data-name="Layer 5"><g class="cls-1"><path class="cls-2" d="M128.35,28.56a99.5,99.5,0,1,1-99.5,99.5,99.61,99.61,0,0,1,99.5-99.5m0-3a102.5,102.5,0,1,0,102.5,102.5,102.5,102.5,0,0,0-102.5-102.5Z" transform="translate(-25.85 -4.82)"/></g></g><g id="Layer_7" data-name="Layer 7"><circle class="cls-3" cx="101.37" cy="76.95" r="8"/><circle class="cls-3" cx="125.75" cy="84.32" r="8"/><circle class="cls-4" cx="142.47" cy="100.47" r="8"/><circle class="cls-3" cx="147.29" cy="123.18" r="8"/><circle class="cls-3" cx="125.75" cy="161.45" r="8"/><circle class="cls-3" cx="141.34" cy="145.29" r="8"/><circle class="cls-3" cx="101.08" cy="167.94" r="8"/><circle class="cls-3" cx="78.69" cy="163.12" r="8"/><circle class="cls-3" cx="62.25" cy="145.83" r="8"/><circle class="cls-3" cx="77.56" cy="83.47" r="8"/><circle class="cls-3" cx="60.83" cy="99.62" r="8"/><circle class="cls-3" cx="56.01" cy="122.33" r="8"/></g><g id="Layer_8" data-name="Layer 8"><circle class="cls-5" cx="145.35" cy="49.19" r="11.66"/><circle class="cls-5" cx="100.28" cy="37.85" r="11.66"/><circle class="cls-5" cx="174.38" cy="83.96" r="11.66"/><circle class="cls-5" cx="175.68" cy="163.84" r="11.66"/><circle class="cls-5" cx="142.51" cy="195.99" r="11.66"/><circle class="cls-5" cx="51.43" cy="191.8" r="11.66"/><circle class="cls-5" cx="23.23" cy="155.29" r="11.66"/><circle class="cls-5" cx="28.48" cy="81.37" r="11.66"/><circle class="cls-5" cx="58.36" cy="51.26" r="11.66"/></g><g id="Layer_9" data-name="Layer 9"><text class="cls-6" transform="translate(98.53 80.34)">0</text><text class="cls-6" transform="translate(70.94 88.07)">11</text><text class="cls-6" transform="translate(54.4 103.94)">10</text><text class="cls-6" transform="translate(52.8 126.64)">9</text><text class="cls-6" transform="translate(59.1 149.33)">8</text><text class="cls-6" transform="translate(75.08 168.32)">7</text><text class="cls-6" transform="translate(97.97 171.8)">6</text><text class="cls-6" transform="translate(123.12 165.47)">5</text><text class="cls-6" transform="translate(137.68 148.76)">4</text><text class="cls-6" transform="translate(144.55 126.79)">3</text><text class="cls-7" transform="translate(139.95 104.51)">2</text><text class="cls-6" transform="translate(122.56 88.65)">1</text></g><g id="Layer_10" data-name="Layer 10"><text class="cls-8" transform="translate(51.66 55.81)">55</text><text class="cls-8" transform="translate(21.3 85.77)">50</text><text class="cls-8" transform="translate(16.04 160.01)">40</text><text class="cls-8" transform="translate(44.72 196.37)">35</text><text class="cls-8" transform="translate(136.56 200.62)">25</text><text class="cls-8" transform="translate(169.32 168.68)">20</text><text class="cls-8" transform="translate(166.48 88.46)">10</text><text class="cls-8" transform="translate(141.39 54.53)">5</text><text class="cls-8" transform="translate(96.89 41.77)">0</text><text class="cls-9" transform="translate(98.95 11.72)">0</text><path class="cls-10" d="M128,61V192" transform="translate(-25.85 -4.82)"/></g><g id="Layer_11" data-name="Layer 11"><polygon class="cls-11" points="134 104.26 101.32 121.58 103.55 125.9 136.23 108.58 134 104.26"/></g><g id="Layer_12" data-name="Layer 12"><polygon class="cls-11" points="100.16 123.77 99.99 195.01 104.03 194.87 104.2 123.62 100.16 123.77"/></g><g id="Layer_3" data-name="Layer 3"><path class="cls-2" d="M128.39,132.11a4.1,4.1,0,1,1,4.1-4.09A4.09,4.09,0,0,1,128.39,132.11Z" transform="translate(-25.85 -4.82)"/><path class="cls-12" d="M128.39,124.05a4,4,0,1,1-4,4,4,4,0,0,1,4-4m0-.25a4.22,4.22,0,1,0,4.22,4.22,4.22,4.22,0,0,0-4.22-4.22Z" transform="translate(-25.85 -4.82)"/></g><g id="Layer_15" data-name="Layer 15"><circle class="cls-13" cx="17.37" cy="123.03" r="11.66"/><text class="cls-14" transform="translate(9.59 127.94)">45</text><circle class="cls-15" cx="102.06" cy="208.21" r="11.66"/><text class="cls-16" transform="translate(95.13 213.24)">30</text><circle class="cls-13" cx="186.69" cy="124.75" r="11.66"/><text class="cls-14" transform="translate(178.95 129.31)">15</text></g><g id="Layer_13" data-name="Layer 13"><rect class="cls-17" x="51.98" y="148.12" width="100.35" height="27.5" rx="5"/></g><g id="Layer_14" data-name="Layer 14"><text class="cls-7" transform="translate(72.66 165.97)">half past ....</text></g></svg>